<svg
   width="120mm"
   height="160mm"
   version="1.0"
   viewBox="0 0 120 160"
   xmlns="http://www.w3.org/2000/svg"
>
<path
  id="field-10"
     d="m 21.432101,25.45 -9.6423,16.7 9.6423,16.7 h 19.284 l 4.4462,-7.7013 -14.838,-25.698 z"
     fill="#ffffff" />
  <path
     id="field-8"
     d="m 16.236101,67.85 -4.4462,7.7008 9.6423,16.7 h 8.8925 l 14.088,-24.401 z"
     fill="#ffffff" />
  <path
     id="field-6"
     d="m 50.358101,75.551 -9.6418,16.7 9.6418,16.7 h 19.284 l 4.4457,-7.7008 -14.837,-25.699 z"
     fill="#ffffff" />
  <path
     id="field-4"
     d="m 74.088101,67.85 -4.4457,7.7008 9.6418,16.7 h 19.284005 l 9.641804,-16.7 -4.4457,-7.7003 z"
     fill="#ffffff" />
  <path
     id="field-2"
     d="m 89.676101,25.45 -14.837,25.7 4.4452,7.7003 h 19.284005 l 9.641804,-16.7 -9.641804,-16.7 z"
     fill="#ffffff" />
  <path
     id="field-0"
     d="m 40.716101,25.45 9.6419,-16.7 h 19.284 l 9.6419,16.7 -9.6419,16.7 h -19.284 z"
     fill="#ffffff" />
  <path
     d="m 11.91348,129.98549 v 13.4961 q 0,1.88149 0.777925,2.71369 0.777925,0.8322 2.424232,0.8322 1.573941,0 2.96697,-0.88647 1.41112,-0.90457 2.189045,-2.13477 v -14.02075 h 3.039336 v 19.05012 h -2.587054 l -0.253278,-2.56896 q -1.121659,1.4473 -2.786057,2.22523 -1.646307,0.75983 -3.310704,0.75983 -2.767967,0 -4.142904,-1.46539 -1.3568463,-1.48349 -1.3568463,-4.1429 v -13.85793 z m 21.0582,10.6015 q 0.126639,3.3107 1.736763,4.83037 1.628215,1.50157 3.835352,1.50157 1.465394,0 2.641327,-0.43419 1.175933,-0.43419 2.442323,-1.28448 l 1.429211,2.00813 q -1.320663,1.0493 -3.039335,1.64631 -1.718672,0.59701 -3.509709,0.59701 -2.786057,0 -4.739916,-1.24829 -1.935767,-1.2483 -2.96697,-3.47353 -1.013112,-2.24332 -1.013112,-5.1922 0,-2.8946 1.013112,-5.13792 1.031203,-2.24332 2.894605,-3.5278 1.881494,-1.28448 4.414273,-1.28448 3.600165,0 5.662571,2.49659 2.080498,2.4966 2.080498,6.83851 0,0.48846 -0.03618,0.92265 -0.01809,0.43419 -0.03618,0.74175 z m 5.174107,-8.50291 q -2.11668,0 -3.545892,1.50158 -1.429211,1.50158 -1.610124,4.64946 h 9.932114 q -0.05427,-3.05743 -1.338755,-4.59519 -1.284481,-1.55585 -3.437343,-1.55585 z m 14.328243,16.95153 v -2.33377 H 55.441 v -14.38257 h -2.96697 v -2.33378 h 5.282654 l 0.56083,4.50473 q 1.103568,-2.35186 2.677509,-3.63634 1.573942,-1.28449 4.160995,-1.28449 0.796017,0 1.41112,0.12664 0.633195,0.10855 1.284481,0.28946 l -0.434191,6.4405 h -2.496596 v -4.05245 q -0.07237,0 -0.162822,0 -4.37809,0 -6.277675,6.25959 v 8.06871 h 3.871534 v 2.33377 z m 36.652883,-0.95883 q -0.97693,0.65128 -2.369958,1.01311 -1.393029,0.36182 -2.731784,0.36182 -3.075518,0 -4.739916,-1.61012 -1.664398,-1.61012 -1.664398,-4.1429 v -11.36133 h -4.37809 v -2.35187 h 4.37809 v -4.32381 l 3.039336,-0.36183 v 4.68564 h 6.585226 l -0.361825,2.35187 h -6.223401 v 11.32514 q 0,1.59204 0.832199,2.42424 0.85029,0.83219 2.804148,0.83219 1.067386,0 1.97195,-0.25327 0.904564,-0.25328 1.682489,-0.65129 z M 102.9667,129.58749 q 4.03435,0 6.09676,2.6956 2.0624,2.6956 2.0624,7.21842 0,2.91269 -0.94074,5.15601 -0.94075,2.24332 -2.76797,3.5278 -1.82722,1.26639 -4.48664,1.26639 -4.034354,0 -6.114854,-2.71369 -2.080497,-2.71369 -2.080497,-7.20033 0,-2.93079 0.940747,-5.17411 0.94075,-2.26141 2.76797,-3.5097 1.845314,-1.26639 4.522824,-1.26639 z m 0,2.4785 q -2.46042,0 -3.726814,1.82722 -1.2483,1.82722 -1.2483,5.64448 0,3.78108 1.23021,5.6083 1.248304,1.80913 3.708714,1.80913 2.46042,0 3.69062,-1.82722 1.2483,-1.82722 1.2483,-5.62639 0,-3.79917 -1.2302,-5.6083 -1.23021,-1.82722 -3.67253,-1.82722 z"
     id="text"
     style="fill:#ffffff"
/>
</svg>
