<svg width="120mm" height="120mm" viewBox="0 0 120 120" version="1.1" xmlns:xlink="http://www.w3.org/1999/xlink" xmlns="http://www.w3.org/2000/svg">
  <g transform="translate(-44.6382,-89.993566)">
    <g transform="translate(205.10756,27.220136)">
      <g transform="translate(-21.022082,0.89908503)">
        <path d="m 5.31917,92.559838 9.641925,-16.700306 19.283852,0 9.641926,16.700304 -9.641925,16.700304 -19.283851,0 z" transform="translate(-132.97608,46.014814)" style="fill:#b83dcf;fill-opacity:1;stroke:#ffffff;stroke-width:18" />
        <path d="m 5.31917,92.559838 9.641925,-16.700306 19.283852,0 9.641926,16.700304 -9.641925,16.700304 -19.283851,0 z" transform="translate(-132.97608,12.614202)" style="fill:#aa03e5;fill-opacity:1;stroke:#ffffff;stroke-width:18" />
        <path d="m 5.31917,92.559838 9.641925,-16.700306 19.283852,0 9.641926,16.700304 -9.641925,16.700304 -19.283851,0 z" transform="translate(-104.0503,62.715118)" style="fill:#cc2bb6;fill-opacity:1;stroke:#ffffff;stroke-width:18" />
        <path d="m 5.31917,92.559838 9.641925,-16.700306 19.283852,0 9.641926,16.700304 -9.641925,16.700304 -19.283851,0 z" transform="translate(-75.12453,46.014811)" style="fill:#d1328f;fill-opacity:1;stroke:#ffffff;stroke-width:18" />
        <path d="m 5.31917,92.559838 9.641925,-16.700306 19.283852,0 9.641926,16.700304 -9.641925,16.700304 -19.283851,0 z" transform="translate(-75.12452,12.614199)" style="fill:#ee1197;fill-opacity:1;stroke:#ffffff;stroke-width:18" />
        <path d="m 5.31917,92.559838 9.641925,-16.700306 19.283852,0 9.641926,16.700304 -9.641925,16.700304 -19.283851,0 z" transform="translate(-104.05031,-4.086103)" style="fill:#f10064;fill-opacity:1;stroke:#ffffff;stroke-width:18" />
      </g>
    </g>
  </g>
</svg>
